<svg width="215" height="45" viewBox="0 0 215 45" fill="none" xmlns="http://www.w3.org/2000/svg">
<path d="M12.9632 44.1141C11.8317 44.1141 10.7426 43.9826 9.69591 43.7196C8.64923 43.4566 7.65913 43.0828 6.72561 42.5982C5.80623 42.1137 4.9505 41.5184 4.15842 40.8123C3.38048 40.1063 2.70156 39.3103 2.12164 38.4243C1.44272 37.3444 0.919379 36.14 0.551627 34.811C0.183876 33.4958 0 32.1183 0 30.6785C0 29.7648 0.0565771 28.8788 0.169731 28.0205C0.282886 27.1621 0.459689 26.283 0.700142 25.3832C0.954739 24.4833 1.28006 23.5419 1.6761 22.559C1.80036 22.2612 1.93241 21.9546 2.07224 21.639C2.64933 20.3368 4.19311 19.7998 5.48446 20.4008C6.82533 21.025 7.36931 22.6284 6.7805 23.9851C6.7399 24.0787 6.70039 24.1709 6.66196 24.2618C6.3225 25.0648 6.04668 25.8262 5.83452 26.5461C5.62235 27.2521 5.46677 27.9374 5.36776 28.6019C5.28289 29.2526 5.24046 29.9379 5.24046 30.6577C5.24046 31.5991 5.36068 32.499 5.60114 33.3573C5.84159 34.2295 6.17398 35.0117 6.59831 35.7039C7.27724 36.6868 8.16833 37.469 9.27158 38.0505C10.389 38.6458 11.6195 38.9434 12.9632 38.9434H17.2702C18.7695 38.9434 19.9859 38.7911 20.9194 38.4865C21.8671 38.182 22.6026 37.7459 23.1259 37.1783C23.6492 36.6245 24.0029 35.9531 24.1867 35.164C24.3848 34.3749 24.4838 33.5027 24.4838 32.5475V21.2134C24.4838 19.7545 25.6664 18.5719 27.1252 18.5719C28.584 18.5719 29.7667 19.7545 29.7667 21.2134V32.5475C29.7667 36.4099 28.72 39.3033 26.6266 41.2277C24.5474 43.152 21.4286 44.1141 17.2702 44.1141H12.9632ZM14.4737 18.8667C13.4084 17.8126 13.4084 16.0917 14.4736 15.0375C15.5191 14.0028 17.2012 13.9982 18.2524 15.0271L18.2949 15.0686C19.3742 16.125 19.3742 17.8623 18.2949 18.9188C17.2437 19.9477 15.5615 19.9431 14.5159 18.9085L14.4737 18.8667Z" fill="#00C5BA"/>
<path d="M37.7865 41.508C37.7865 40.0801 38.946 38.9429 40.3698 38.8346C40.5161 38.8235 40.6593 38.8113 40.7992 38.798C41.6903 38.7288 42.4753 38.6181 43.1542 38.4658C43.8473 38.3273 44.4484 38.1404 44.9576 37.9051C45.481 37.6836 45.9336 37.4136 46.3155 37.0952C46.9095 36.6245 47.3551 36.0777 47.6521 35.4547C47.9633 34.8317 48.1472 33.9942 48.2037 32.942H44.9364C44.2292 32.942 43.5078 32.8866 42.7723 32.7759C42.0368 32.6651 41.3296 32.4782 40.6507 32.2152C39.9718 31.9383 39.3282 31.5853 38.72 31.1561C38.1259 30.727 37.6026 30.2009 37.15 29.5779C36.7115 28.9411 36.3579 28.1935 36.0891 27.3352C35.8346 26.4768 35.7073 25.4939 35.7073 24.3864C35.7073 23.4312 35.7921 22.5867 35.9618 21.8529C36.1316 21.1054 36.3437 20.4478 36.5983 19.8802C36.8671 19.3126 37.1641 18.8211 37.4894 18.4058C37.8148 17.9766 38.1259 17.6028 38.423 17.2844C39.2716 16.4538 40.2334 15.8169 41.3084 15.3739C42.3834 14.9171 43.5432 14.6887 44.7879 14.6887C46.3296 14.6887 47.645 14.9517 48.7341 15.4778C49.8374 15.99 50.7356 16.703 51.4286 17.6167C52.1358 18.5304 52.6521 19.6171 52.9774 20.8769C53.3027 22.1229 53.4654 23.4796 53.4654 24.9471V27.7713H57.0722V32.942H53.4442C53.3876 34.8386 53.0411 36.4376 52.4046 37.739C51.7822 39.0403 50.8487 40.1755 49.604 41.1446C48.9534 41.643 48.2462 42.0722 47.4824 42.4321C46.7186 42.8059 45.8629 43.1174 44.9152 43.3666C43.9675 43.6158 42.9067 43.7957 41.7327 43.9065C41.3003 43.9529 40.8461 43.9907 40.3704 44.0199C38.9452 44.1072 37.7865 42.9359 37.7865 41.508ZM44.7879 19.8594C43.5856 19.8594 42.6309 20.2263 41.9237 20.96C41.2165 21.6937 40.8628 22.8359 40.8628 24.3864C40.8628 24.9955 40.9831 25.5147 41.2235 25.9439C41.4781 26.373 41.7964 26.726 42.1783 27.0029C42.5743 27.266 43.0128 27.4598 43.4937 27.5844C43.9746 27.709 44.4555 27.7713 44.9364 27.7713H48.2037V24.9471C48.2037 24.158 48.1401 23.4865 48.0128 22.9328C47.8855 22.3652 47.7158 21.8945 47.5036 21.5207C47.3056 21.1469 47.0722 20.8493 46.8034 20.6277C46.5489 20.4062 46.2943 20.2401 46.0397 20.1294C45.7992 20.0186 45.5658 19.9494 45.3395 19.9217C45.1132 19.8802 44.9293 19.8594 44.7879 19.8594Z" fill="#00C5BA"/>
<path d="M65.283 27.7713C65.5658 27.7713 65.778 27.8474 65.9195 27.9997C66.075 28.1381 66.1528 28.325 66.1528 28.5604V32.1114C66.1528 32.4159 66.075 32.6305 65.9195 32.7551C65.778 32.8797 65.5658 32.942 65.283 32.942H56.4145C56.1033 32.942 55.8841 32.8797 55.7568 32.7551C55.6295 32.6305 55.5658 32.4159 55.5658 32.1114V28.5604C55.5658 28.325 55.6295 28.1381 55.7568 27.9997C55.8841 27.8474 56.1033 27.7713 56.4145 27.7713H65.283Z" fill="#00C5BA"/>
<path d="M64.83 27.7713H67.5669C68.4014 27.7713 69.0732 27.702 69.5824 27.5636C70.1058 27.4252 70.5089 27.2244 70.7918 26.9614C71.0888 26.6845 71.2868 26.3522 71.3858 25.9646C71.4848 25.577 71.5343 25.134 71.5343 24.6356V21.2341C71.5343 19.7753 72.717 18.5927 74.1758 18.5927C75.6346 18.5927 76.8172 19.7753 76.8172 21.2341V24.5318C76.8172 25.6531 77.0931 26.4699 77.6447 26.9822C78.1963 27.4944 79.0662 27.7574 80.2543 27.7713C80.4665 27.7574 80.7211 27.7159 81.0181 27.6467C81.3293 27.5774 81.6263 27.439 81.9092 27.2313C82.2062 27.0098 82.4537 26.6984 82.6518 26.2969C82.8639 25.8816 82.97 25.3278 82.97 24.6356V21.2235C82.97 19.7705 84.1479 18.5927 85.6008 18.5927C87.0538 18.5927 88.2317 19.7705 88.2317 21.2235V24.5318C88.2317 25.667 88.5075 26.4907 89.0591 27.0029C89.6107 27.5152 90.5089 27.7713 91.7536 27.7713C92.0931 27.7713 92.4255 27.7228 92.7508 27.6259C93.0902 27.5152 93.3944 27.3421 93.6631 27.1068C93.9318 26.8576 94.1511 26.5391 94.3208 26.1515C94.4905 25.7639 94.5895 25.2863 94.6178 24.7187V21.2341C94.6178 19.7753 95.8004 18.5927 97.2593 18.5927C98.7181 18.5927 99.9007 19.7753 99.9007 21.2341V24.7394C99.929 25.8054 100.261 26.5807 100.898 27.0652C101.534 27.5359 102.51 27.7713 103.826 27.7713H105.905V32.942H103.826C102.369 32.942 101.103 32.7897 100.028 32.4852C98.953 32.1667 98.0266 31.6545 97.2487 30.9485C96.5273 31.5991 95.6786 32.0975 94.7027 32.4436C93.7409 32.7759 92.7579 32.942 91.7536 32.942C90.424 32.942 89.2571 32.7828 88.2529 32.4644C87.2628 32.146 86.3788 31.6337 85.6008 30.9277C84.8653 31.5645 84.0379 32.056 83.1185 32.4021C82.2133 32.7482 81.2939 32.9282 80.3604 32.942H80.2119C78.9389 32.942 77.8073 32.7759 76.8172 32.4436C75.8271 32.0975 74.9643 31.6199 74.2288 31.0108C72.574 32.2983 70.3533 32.942 67.5669 32.942H64.83V27.7713Z" fill="#00C5BA"/>
<path d="M105.079 32.942V27.7713H117.491C117.717 27.7713 118.028 27.7643 118.424 27.7505C118.82 27.7228 119.209 27.6674 119.591 27.5844C119.973 27.4875 120.298 27.3559 120.567 27.1898C120.85 27.0098 120.991 26.7676 120.991 26.463C120.991 25.8677 120.758 25.1478 120.291 24.3033C119.839 23.4588 119.252 22.559 118.53 21.6037C117.809 20.6485 116.996 19.6863 116.09 18.7173C115.199 17.7343 114.308 16.8137 113.417 15.9554C112.54 15.0832 111.713 14.3149 110.935 13.6504C109.808 12.688 109.15 11.2479 109.283 9.77229L109.315 9.42162C109.424 8.21139 110.179 7.15459 111.288 6.658L125.679 0.21408C126.927 -0.344576 128.39 0.228616 128.926 1.48606C129.454 2.72379 128.883 4.15539 127.647 4.68891L114.351 10.4316C114.888 10.9438 115.489 11.5253 116.154 12.176C116.833 12.8266 117.526 13.5188 118.233 14.2526C118.94 14.9725 119.641 15.727 120.334 16.5161C121.041 17.2913 121.699 18.0735 122.307 18.8626C122.929 19.6379 123.481 20.3993 123.962 21.1469C124.443 21.8945 124.817 22.6005 125.086 23.265C125.327 23.8465 125.496 24.4072 125.595 24.9471C125.694 25.487 125.744 25.9785 125.744 26.4215C125.744 26.9752 125.687 27.4598 125.574 27.8751C125.475 28.2904 125.362 28.6434 125.235 28.9342C125.065 29.308 124.803 29.7302 124.45 30.2009C124.096 30.6716 123.601 31.1077 122.964 31.5092C122.342 31.9106 121.55 32.2498 120.588 32.5267C119.641 32.8036 118.488 32.942 117.13 32.942H105.079Z" fill="#00C5BA"/>
<path d="M139.098 30.3006C139.098 31.7594 137.915 32.942 136.456 32.942C134.997 32.942 133.815 31.7594 133.815 30.3006V5.63881C133.815 4.17998 134.997 2.99737 136.456 2.99737C137.915 2.99737 139.098 4.17998 139.098 5.63881V30.3006Z" fill="#00C5BA"/>
<path d="M211.554 2.3218H202.364C201.316 0.911948 199.647 0 197.768 0C194.596 0 192.024 2.59876 192.024 5.80449C192.024 9.01023 194.596 11.609 197.768 11.609C199.647 11.609 201.316 10.697 202.364 9.28719H208.107V16.3442C208.107 27.8219 198.861 37.1488 187.429 37.1488C175.996 37.1488 166.75 27.8219 166.75 16.3442V9.28719H172.494C173.542 10.697 175.21 11.609 177.09 11.609C180.262 11.609 182.834 9.01023 182.834 5.80449C182.834 2.59876 180.262 0 177.09 0C175.21 0 173.542 0.911948 172.494 2.3218H163.304C161.4 2.3218 159.857 3.88105 159.857 5.80449V16.3442C159.857 31.6935 172.214 44.1141 187.429 44.1141C202.644 44.1141 215 31.6935 215 16.3442V5.80449C215 3.88105 213.457 2.3218 211.554 2.3218Z" fill="#00C5BA"/>
</svg>
