<svg width="62" height="62" viewBox="0 0 62 62" fill="none" xmlns="http://www.w3.org/2000/svg">
<path d="M21.5303 20.2031V4.125C21.5303 2.39911 22.9294 1 24.6553 1H36.5871C38.313 1 39.7121 2.39911 39.7121 4.125V20.2031C39.7121 21.929 41.1112 23.3281 42.8371 23.3281H57.875C59.6009 23.3281 61 24.7272 61 26.4531V37.8125C61 39.5384 59.6009 40.9375 57.875 40.9375H42.8371C41.1112 40.9375 39.7121 42.3366 39.7121 44.0625V57.875C39.7121 59.6009 38.313 61 36.5871 61H24.6553C22.9294 61 21.5303 59.6009 21.5303 57.875V44.0625C21.5303 42.3366 20.1312 40.9375 18.4053 40.9375H4.125C2.39911 40.9375 1 39.5384 1 37.8125V26.4531C1 24.7272 2.39911 23.3281 4.125 23.3281H18.4053C20.1312 23.3281 21.5303 21.929 21.5303 20.2031Z" fill="white" stroke="#2F455C" stroke-width="1.5"/>
<path d="M47.6128 44.9594L47.6128 36.3209C47.6128 35.754 47.1421 35.3005 46.5756 35.3216L38.7839 35.6117L33.5363 35.6117L33.5363 42.7855L33.5363 50.7127C33.5363 51.632 34.6725 52.0642 35.2835 51.3773L39.9083 46.1778C40.3218 45.7129 41.0548 45.7344 41.4403 46.2227L45.8279 51.7792C46.4157 52.5236 47.6128 52.1079 47.6128 51.1595L47.6128 44.9594Z" fill="#00C5BA" stroke="#2F455C" stroke-width="1.5"/>
<circle cx="40.5988" cy="23.8" r="16.05" fill="#D9D9D9" stroke="#2F455C" stroke-width="1.5"/>
<circle cx="40.6004" cy="23.8001" r="12.45" fill="white" stroke="#2F455C" stroke-width="1.5"/>
<path d="M38.0511 20.449L39.4758 17.2366C39.8105 16.4818 40.8641 16.435 41.2645 17.1572L43.1304 20.5231C43.291 20.8127 43.5845 21.0041 43.9143 21.0341L47.1553 21.3294C48.118 21.4171 48.4083 22.6841 47.5798 23.1823L44.823 24.8399C44.3658 25.1149 44.2049 25.7003 44.4574 26.1703L46.3703 29.7304C46.8678 30.6563 45.783 31.6245 44.9194 31.0253L40.9106 28.2441C40.5435 27.9894 40.052 28.0091 39.7065 28.2924L36.3986 31.0047C35.605 31.6554 34.4632 30.8312 34.831 29.8731L36.2879 26.0769C36.4553 25.6407 36.2983 25.1466 35.9098 24.8871L33.3512 23.1776C32.5673 22.6539 32.8771 21.4358 33.816 21.3503L37.2277 21.0394C37.589 21.0065 37.9041 20.7806 38.0511 20.449Z" fill="#2F455C" stroke="#2F455C"/>
</svg>
