<svg width="21" height="21" viewBox="0 0 21 21" fill="none" xmlns="http://www.w3.org/2000/svg">
<path d="M7.5 4.00049C7.5 3.4482 7.94772 3.00049 8.5 3.00049H12.5C13.0523 3.00049 13.5 3.4482 13.5 4.00049V5.50049H7.5V4.00049Z" stroke="#2F455C" stroke-width="1.5" stroke-linejoin="round"/>
<path d="M9 11.7183C9 11.166 9.44772 10.7183 10 10.7183H15V14.7183H10C9.44772 14.7183 9 14.2705 9 13.7183V11.7183Z" stroke="#2F455C" stroke-width="1.5"/>
<path d="M8.51562 6.04639V7.04897C8.51562 7.30157 8.31085 7.50635 8.05824 7.50635V7.50635C6.9215 7.50635 6 8.42786 6 9.56459V16.0917C6 17.1453 6.85417 17.9995 7.90785 17.9995H13.0922C14.1458 17.9995 15 17.1453 15 16.0917V9.55181C15 8.42213 14.0842 7.50635 12.9545 7.50635V7.50635C12.7035 7.50635 12.5 7.30285 12.5 7.05181V6.04639" stroke="#2F455C" stroke-width="1.5"/>
</svg>