<svg width="1322" height="361" viewBox="0 0 1322 361" fill="none" xmlns="http://www.w3.org/2000/svg">
<g clip-path="url(#clip0_17859_612)">
<rect width="1322" height="361" rx="20.9855" fill="#EFFFFE"/>
<path d="M215.638 192.621H196.447C194.231 192.621 192.573 190.586 193.022 188.415L200.967 149.982C201.303 148.357 202.734 147.192 204.392 147.192H249.837C251.979 147.192 253.618 149.102 253.294 151.22L247.179 191.137C247.049 191.991 246.314 192.621 245.451 192.621H243.473" stroke="#94DFDA" stroke-width="1.74879"/>
<path d="M253.041 148.94L259.549 179.172C259.825 180.456 259.359 181.787 258.341 182.618L246.082 192.622" stroke="#94DFDA" stroke-width="1.74879"/>
<ellipse cx="205.199" cy="162.919" rx="2.60951" ry="2.62089" fill="#C1F0EC"/>
<ellipse cx="203.461" cy="173.402" rx="2.60951" ry="2.62089" fill="#C1F0EC"/>
<ellipse cx="201.719" cy="183.886" rx="2.60951" ry="2.62089" fill="#C1F0EC"/>
<ellipse cx="217.375" cy="162.919" rx="2.60951" ry="2.62089" fill="#C1F0EC"/>
<ellipse cx="215.641" cy="173.402" rx="2.60951" ry="2.62089" fill="#C1F0EC"/>
<ellipse cx="213.899" cy="183.886" rx="2.60951" ry="2.62089" fill="#C1F0EC"/>
<ellipse cx="229.555" cy="162.919" rx="2.60951" ry="2.62089" fill="#C1F0EC"/>
<ellipse cx="227.813" cy="173.402" rx="2.60951" ry="2.62089" fill="#C1F0EC"/>
<ellipse cx="241.731" cy="162.919" rx="2.60951" ry="2.62089" fill="#C1F0EC"/>
<ellipse cx="239.992" cy="173.402" rx="2.60951" ry="2.62089" fill="#C1F0EC"/>
<ellipse cx="238.25" cy="183.886" rx="2.60951" ry="2.62089" fill="#C1F0EC"/>
<path d="M97.0665 144.689L101.086 132.508L113.143 120.327L125.2 111.191L145.678 129.72L156.055 133.215L156.919 131.467L155.19 123.605L153.333 117.282L164.702 136.709L167.296 143.698L171.62 156.803L177.673 178.188L184.592 198.737L191.2 197.558C196.084 196.688 201.005 198.886 203.615 203.105L205.58 210.671L206.585 215.746V222.852L190.497 229.081L191.502 243.292L194.096 259.017L196.537 294.923L195.532 291.878L191.513 422.825L184.48 486.776L185.485 512.154L177.447 514.184L176.442 523.32L183.475 532.456L197.542 542.607L212.613 548.697L227.684 552.758L231.703 556.818L234.718 561.893L230.699 568.999H148.309L143.285 561.893V552.758L148.309 541.591V513.169L142.28 512.154L141.276 510.124L128.214 512.154L125.2 528.395L127.209 542.607L129.219 552.758L130.223 557.833L127.209 568.999H85.0095L83 565.954V557.833L87.019 552.758L94.0523 541.591L100.081 532.456V511.139L91.038 509.108L98.0713 455.308L102.09 402.523L108.488 349.001L111.947 291.342L106.109 290.863L111.133 272.591L117.135 260.765V238.924V224.072L115.152 215.746L110.225 203.978L106.111 192.621L101.086 178.188L99.076 170.067L96.0618 153.825L97.0665 144.689Z" fill="#EFFFFE"/>
<path d="M212.265 193.495L201.023 198.736L202.753 202.231L204.482 206.599L206.212 210.967L216.589 207.473L222.642 205.725L232.154 202.231L239.071 197.863L244.26 192.621L231.289 193.495L227.83 192.621L226.101 190V184.758V181.264L225.236 179.517L222.642 180.39L219.183 184.758L218.318 189.127L216.589 191.747L212.265 193.495Z" fill="#EFFFFE"/>
<path d="M162.382 51.3018L166.401 64.498L167.417 69.1181C168.066 72.068 169.538 74.7733 171.663 76.92L172.892 78.1617C174.258 79.5415 174.133 81.7991 172.623 83.0195V83.0195C171.179 84.1866 170.061 85.707 169.377 87.4334L169.255 87.7409C168.697 89.1512 168.41 90.6543 168.41 92.171V95.6438C168.41 96.5327 168.314 97.4189 168.123 98.2871L167.288 102.082C166.749 104.535 164.813 106.438 162.352 106.935V106.935C161.706 107.066 161.044 107.095 160.389 107.021L158.075 106.761C154.322 106.34 150.761 104.881 147.792 102.548V102.548C144.849 100.235 142.602 97.1542 141.3 93.6453L140.277 90.8905" stroke="#94DFDA" stroke-width="1.62724"/>
<path d="M126.205 89.874V91.8626C126.205 97.2934 125.721 102.713 124.759 108.058L124.195 111.191" stroke="#94DFDA" stroke-width="1.62724"/>
<path d="M153.336 106.118V118.299L156.35 123.375" stroke="#94DFDA" stroke-width="1.62724"/>
<path d="M116.273 219.703C116.273 220.515 117.163 243.156 117.163 252.292V252.292C117.163 265.237 113.439 277.91 106.435 288.798L105.105 290.865L144.291 294.926L155.333 287.754C166.658 280.399 176.768 271.325 185.3 260.858L186.49 259.397L191.514 278.684L197.543 296.956L194.098 257.269L189.774 229.313" stroke="#94DFDA" stroke-width="1.62724"/>
<path d="M111.799 292.64L107.038 360.665L104.182 411.43L101.325 458.133L94.6602 510.929L121.321 514.99L145.125 510.929L149.886 451.026L163.217 386.047L169.882 335.282L179.403 289.594" stroke="#94DFDA" stroke-width="1.62724"/>
<path d="M195.538 291.88L192.524 409.631L185.49 486.778V513.171L169.414 515.201L141.281 513.171V510.125" stroke="#94DFDA" stroke-width="1.62724"/>
<path d="M140.905 74.006L161.455 53.2447C162.066 52.627 162.633 51.9667 163.151 51.2689L163.421 50.9051C164.628 49.2795 164.822 47.1149 163.924 45.3004C162.271 41.9602 159.515 39.2934 156.122 37.751L150.542 35.2142C144.508 32.4707 137.778 31.642 131.258 32.8396C123.469 34.2705 116.472 38.5018 111.587 44.7356L108.78 48.3179C103.303 55.3076 101.441 64.47 103.755 73.043C105.284 78.7091 108.545 83.7563 113.081 87.48L115.149 89.1776L116.011 89.8851C119.459 92.7154 124.526 92.32 127.494 88.9892L129.351 86.9043C130.484 85.6327 130.731 83.8006 129.975 82.2743C129.489 81.2909 129.409 80.1555 129.752 79.1136L130.11 78.0289C130.733 76.142 132.736 75.0851 134.645 75.6361C136.873 76.2792 139.274 75.6539 140.905 74.006Z" fill="#EFFFFE"/>
<path d="M109.407 84.4636L107.781 85.7407C106.173 87.0038 105.529 89.1389 106.169 91.0807L106.245 91.309C106.776 92.9185 108.172 94.0889 109.849 94.331V94.331C112.241 94.6763 114.474 93.0564 114.889 90.6752L115.149 89.1776M115.149 89.1776L116.011 89.8851C119.459 92.7154 124.526 92.32 127.494 88.9892L129.351 86.9043C130.484 85.6327 130.731 83.8006 129.975 82.2743V82.2743C129.489 81.2909 129.409 80.1555 129.752 79.1136L130.11 78.0289C130.733 76.142 132.736 75.0851 134.645 75.6361V75.6361C136.873 76.2792 139.274 75.6539 140.905 74.006L161.455 53.2447C162.066 52.627 162.633 51.9667 163.151 51.2689L163.421 50.9051C164.628 49.2795 164.822 47.1149 163.924 45.3004V45.3004C162.271 41.9602 159.515 39.2934 156.122 37.751L150.542 35.2142C144.508 32.4707 137.778 31.642 131.258 32.8396V32.8396C123.469 34.2705 116.472 38.5018 111.587 44.7356L108.78 48.3179C103.303 55.3076 101.441 64.47 103.755 73.043V73.043C105.284 78.7091 108.545 83.7563 113.081 87.48L115.149 89.1776Z" stroke="#94DFDA" stroke-width="1.62724"/>
<path d="M106.11 89.874L102.845 93.1725C99.1151 96.9409 96.8462 101.913 96.4437 107.199L96.0625 112.206L97.5672 111.193C100.395 109.288 102.091 106.101 102.091 102.692V102.692C102.091 100.312 102.919 98.0057 104.434 96.1697L107.115 92.9193" stroke="#94DFDA" stroke-width="1.62724"/>
<path d="M110.125 94.9482V102.18C110.125 104.111 109.781 106.026 109.109 107.836L108.127 110.483C107.455 112.293 107.111 114.209 107.111 116.14V118.295L106.04 117.214C104.106 115.26 102.699 112.847 101.951 110.202L101.082 107.129" stroke="#94DFDA" stroke-width="1.62724"/>
<path d="M124.195 111.193L143.531 127.331C146.011 129.401 148.949 130.849 152.1 131.557L156.347 132.51V132.51C156.347 128.482 155.63 124.486 154.228 120.71L153.333 118.299L166.432 140.204L173.35 161.171L184.591 198.737" stroke="#94DFDA" stroke-width="1.62724"/>
<path d="M201.562 198.49L210.586 193.932C211.265 193.589 211.991 193.351 212.742 193.224V193.224C215.715 192.724 218.107 190.506 218.831 187.579L219.648 184.279L222.31 180.693C223.546 179.029 226.177 179.698 226.467 181.75V181.75C226.609 182.752 226.581 183.771 226.384 184.763L225.863 187.399C225.74 188.02 225.74 188.659 225.863 189.279V189.279C226.332 191.65 228.478 193.311 230.89 193.172L244.258 192.4L242.666 194.086C236.847 200.248 229.231 204.415 220.904 205.992V205.992C218.731 206.404 216.595 206.994 214.519 207.757L206.586 210.671" stroke="#94DFDA" stroke-width="1.62724"/>
<path d="M124.198 111.193L108.321 124.828C105.527 127.227 103.141 130.062 101.254 133.223V133.223C97.5311 139.461 95.897 146.724 96.5896 153.955L97.3811 162.218C97.87 167.323 99.0177 172.343 100.796 177.153L118.863 226.038C121.006 231.834 125.198 236.644 130.647 239.559V239.559C136.195 242.526 142.65 243.317 148.751 241.776L175.441 235.035L206.588 222.854L206.687 221.356C207.272 212.481 204.751 203.679 199.555 196.461V196.461L151.327 205.597L145.222 194.804C141.276 187.828 138.412 180.295 136.726 172.46L134.246 160.933" stroke="#94DFDA" stroke-width="1.62724"/>
<path d="M203.842 151.226C204.002 150.406 204.721 149.813 205.558 149.813H246.9C247.992 149.813 248.817 150.804 248.62 151.878L247.979 155.369C247.826 156.2 247.103 156.803 246.259 156.803H204.874C203.774 156.803 202.947 155.798 203.158 154.718L203.842 151.226Z" fill="#C1F0ED"/>
<path d="M211.398 151.561C211.881 151.561 212.272 151.169 212.272 150.687C212.272 150.204 211.881 149.812 211.398 149.812V151.561ZM211.398 149.812C210.819 149.812 209.93 149.629 209.21 149.106C208.534 148.614 207.949 147.784 207.949 146.318H206.2C206.2 148.347 207.055 149.701 208.181 150.52C209.263 151.307 210.535 151.561 211.398 151.561V149.812ZM207.949 146.318C207.949 144.286 209.606 143.043 211.398 143.043C212.275 143.043 213.122 143.352 213.749 143.985C214.369 144.612 214.847 145.631 214.847 147.192H216.596C216.596 145.259 215.993 143.767 214.992 142.755C213.997 141.75 212.683 141.295 211.398 141.295C208.866 141.295 206.2 143.109 206.2 146.318H207.949Z" fill="#94DFDA"/>
<path d="M225.238 151.561C225.721 151.561 226.112 151.169 226.112 150.687C226.112 150.204 225.721 149.812 225.238 149.812V151.561ZM225.238 149.812C224.659 149.812 223.77 149.629 223.05 149.106C222.374 148.614 221.788 147.784 221.788 146.318H220.04C220.04 148.347 220.895 149.701 222.021 150.52C223.103 151.307 224.375 151.561 225.238 151.561V149.812ZM221.788 146.318C221.788 144.286 223.446 143.043 225.238 143.043C226.115 143.043 226.962 143.352 227.589 143.985C228.209 144.612 228.687 145.631 228.687 147.192H230.436C230.436 145.259 229.833 143.767 228.832 142.755C227.837 141.75 226.522 141.295 225.238 141.295C222.706 141.295 220.04 143.109 220.04 146.318H221.788Z" fill="#94DFDA"/>
<path d="M240.8 151.561C241.283 151.561 241.675 151.169 241.675 150.687C241.675 150.204 241.283 149.812 240.8 149.812V151.561ZM240.8 149.812C240.221 149.812 239.332 149.629 238.612 149.106C237.937 148.614 237.351 147.784 237.351 146.318H235.602C235.602 148.347 236.458 149.701 237.584 150.52C238.665 151.307 239.938 151.561 240.8 151.561V149.812ZM237.351 146.318C237.351 144.286 239.008 143.043 240.8 143.043C241.677 143.043 242.525 143.352 243.151 143.985C243.771 144.612 244.249 145.631 244.249 147.192H245.998C245.998 145.259 245.395 143.767 244.394 142.755C243.399 141.75 242.085 141.295 240.8 141.295C238.268 141.295 235.602 143.109 235.602 146.318H237.351Z" fill="#94DFDA"/>
</g>
<defs>
<clipPath id="clip0_17859_612">
<rect width="1322" height="361" rx="20.9855" fill="white"/>
</clipPath>
</defs>
</svg>
