<svg width="60" height="60" viewBox="0 0 60 60" fill="none" xmlns="http://www.w3.org/2000/svg">
<path d="M26.9058 11.4951L42.8831 10.3847C46.5441 10.1303 50.2219 10.4845 53.7671 11.4328C53.8897 11.4656 53.9544 11.5998 53.9037 11.7161L48.994 22.9926L47.9481 26.0277C46.8442 29.2314 46.2807 32.5963 46.2807 35.9847V46.0241V47.7944C46.2807 48.2569 45.9634 48.6591 45.5136 48.7669L32.5786 51.8645C25.8446 53.4771 18.9443 54.2918 12.0199 54.2918H9.5515C9.23029 54.2918 8.95319 54.0663 8.88789 53.7518C7.92918 49.1341 7.94488 44.3672 8.93398 39.7559L9.82051 35.6228C10.3375 33.2126 10.5982 30.7545 10.5982 28.2894V28.0114C10.5982 23.3871 9.64458 18.8126 7.797 14.5735C7.61643 14.1593 7.88762 13.6883 8.33656 13.6366L26.9058 11.4951Z" fill="white" stroke="#2F455C" stroke-width="1.5"/>
<path d="M11.982 21.2509L26.0648 19.416" stroke="#2F455C" stroke-width="1.5"/>
<path d="M11.5445 19.5351L25.6273 17.7002" stroke="#2F455C" stroke-width="1.5"/>
<path d="M39.702 4.8013L40.872 9.90096L42.392 20.5389L42.516 22.7358C42.8376 28.4314 42.4955 34.145 41.4966 39.7616L40.7106 44.1814C40.4136 45.8518 39.9577 47.4901 39.3491 49.0739C38.594 51.0391 36.8833 52.4794 34.8181 52.8885L10.4863 57.7082L7.51767 58.4074C6.30746 58.6925 5.18957 57.6707 5.36503 56.4398L7.0052 44.9341L7.47665 42.1021C8.88815 33.6233 8.72834 24.9571 7.0052 16.536L5.60093 11.8894C5.28599 10.8473 5.98005 9.77125 7.05929 9.6284L23.0468 7.51234L37.5086 3.495C38.4785 3.2256 39.4769 3.82025 39.702 4.8013Z" fill="white" stroke="#2F455C" stroke-width="1.5"/>
<path d="M14.2857 8.48197L14.1357 8.17083C13.7907 7.4553 13.0665 7.00049 12.2722 7.00049H12.2332C11.9389 7.00049 11.6486 7.06875 11.3851 7.1999V7.1999C10.5782 7.60156 10.1637 8.51417 10.3922 9.38607L11.4956 13.5971C11.6721 14.2706 12.2279 14.7776 12.9147 14.8915L13.0332 14.9112C13.3801 14.9687 13.7361 14.898 14.0347 14.7123V14.7123C14.6013 14.3597 14.8533 13.6655 14.6449 13.0315L13.9286 10.8523" stroke="#2F455C" stroke-width="1.5"/>
<path d="M36.1543 8.16698L35.3605 3.80089C35.3283 3.62423 35.2431 3.46157 35.1161 3.3346L34.5693 2.78772C34.5022 2.72063 34.4247 2.66479 34.3398 2.62236L33.0737 1.9893C32.8852 1.89506 32.6693 1.87135 32.4648 1.92246L31.5332 2.15537C31.2582 2.22412 31.033 2.42074 30.9277 2.68392L30.3309 4.17601C30.2791 4.30533 30.2587 4.44506 30.2713 4.58378L30.5887 8.07475C30.6348 8.5817 31.0989 8.94473 31.6021 8.86732L36.1543 8.16698Z" fill="white"/>
<path d="M31.7902 14.285L33.6742 15.5599C33.8801 15.6993 34.1354 15.7454 34.3771 15.6867L35.3314 15.4552C35.559 15.4 35.7552 15.2567 35.8771 15.0567L36.8162 13.516C36.9136 13.3561 36.9577 13.1693 36.9421 12.9827L36.6545 9.55562C36.6123 9.0521 36.1568 8.68672 35.6561 8.7547L31.5775 9.30845C31.0814 9.3758 30.7406 9.84184 30.8267 10.3351L31.4154 13.7058C31.4566 13.9417 31.5919 14.1508 31.7902 14.285Z" fill="#00C5BA"/>
<path d="M35.8971 4.4336L36.891 12.3849C36.9595 12.9333 36.8634 13.4912 36.6163 13.9855C35.9056 15.4068 34.1506 15.9545 32.7615 15.1828C31.9789 14.748 31.4524 13.9643 31.3457 13.0754L30.3769 5.00234C30.2958 4.32601 30.4703 3.64377 30.8662 3.08948C31.705 1.91523 33.3125 1.59611 34.5362 2.36091L34.5984 2.39982C35.3152 2.84783 35.7922 3.59482 35.8971 4.4336Z" stroke="#2F455C" stroke-width="1.5"/>
<path d="M31.0914 9.01045L36.1504 8.58887" stroke="#2F455C" stroke-width="1.5"/>
<path d="M29.1423 8.99853L25.7041 6.19286C25.565 6.07934 25.3946 6.01094 25.2156 5.99679L24.4446 5.93583C24.35 5.92835 24.2548 5.93617 24.1627 5.95899L22.7887 6.2994C22.5842 6.35007 22.4045 6.47225 22.2822 6.64383L21.7248 7.42579C21.5602 7.6566 21.5165 7.95239 21.6073 8.22092L22.122 9.7433C22.1666 9.87525 22.2418 9.99477 22.3414 10.0921L24.8491 12.5414C25.2132 12.8971 25.8019 12.8719 26.1344 12.4864L29.1423 8.99853Z" fill="white"/>
<path d="M29.7951 16.486L32.0557 16.2327C32.3029 16.2051 32.5269 16.0744 32.6727 15.8729L33.2483 15.0772C33.3855 14.8875 33.4418 14.6511 33.4047 14.4199L33.1187 12.6383C33.0891 12.4534 33.0014 12.2827 32.8683 12.151L30.4248 9.73086C30.0658 9.37529 29.4821 9.39306 29.1454 9.76981L26.4026 12.8387C26.069 13.212 26.1123 13.7878 26.4979 14.107L29.1339 16.2887C29.3184 16.4414 29.557 16.5126 29.7951 16.486Z" fill="#00C5BA"/>
<path d="M26.5259 6.32519L32.4437 11.728C32.8518 12.1006 33.1409 12.5874 33.2738 13.1238C33.6559 14.6662 32.6766 16.2222 31.119 16.537C30.2415 16.7143 29.3322 16.46 28.6741 15.8531L22.6963 10.3413C22.1955 9.87958 21.8853 9.24736 21.8267 8.56872C21.7023 7.13105 22.7179 5.84475 24.1452 5.63209L24.2178 5.62128C25.0539 5.49671 25.9016 5.75525 26.5259 6.32519Z" stroke="#2F455C" stroke-width="1.5"/>
<path d="M25.8436 12.9242L29.418 9.31934" stroke="#2F455C" stroke-width="1.5"/>
<path d="M24.1566 24.1255L34.3574 21.4475C35.2549 21.2119 36.1524 21.828 36.2551 22.7502C36.7495 27.1892 36.6551 31.6742 35.9744 36.0885L35.1205 41.6255C34.5523 44.6486 32.2096 47.0264 29.1953 47.6395L12.6735 50.9999C12.6716 51.0003 12.6697 51.0005 12.6678 51.0005C11.7947 51.0005 11.1306 50.2166 11.274 49.3553L12.0442 44.7317L13.7149 32.8426V27.2052C13.7149 26.3114 14.3828 25.5586 15.2703 25.4522L18.5181 25.063L24.1566 24.1255Z" fill="#D9D9D9" stroke="#2F455C" stroke-width="1.5"/>
<path d="M17.8627 27.9051L32.4572 25.1904C32.9408 25.1005 33.3799 25.4896 33.3488 25.9805L33.2887 26.9283L33.2662 27.2825C33.2406 27.686 32.9442 28.0206 32.5467 28.0945L18.1133 30.7792C17.5483 30.8843 17.0353 30.4297 17.0709 29.8564L17.0709 29.855L17.073 29.8223L17.1431 28.7173C17.1687 28.3138 17.4652 27.9791 17.8627 27.9051Z" fill="#2F455C" stroke="#2F455C" stroke-width="1.5"/>
</svg>