<svg width="81" height="106" viewBox="0 0 81 106" fill="none" xmlns="http://www.w3.org/2000/svg">
<path d="M27.3398 7.19109C27.3398 3.58011 30.2671 0.652832 33.8781 0.652832H73.2043C76.8152 0.652832 79.7425 3.58011 79.7425 7.19108V100.448C79.7425 103.087 77.603 105.227 74.9638 105.227H32.1185C29.4793 105.227 27.3398 103.087 27.3398 100.448V7.19109Z" fill="white" stroke="#4A6C90"/>
<rect x="31.0234" y="4.63574" width="45.0368" height="92.622" rx="4.77869" fill="white" stroke="#4A6C90"/>
<ellipse cx="52.6204" cy="85.8072" rx="3.68294" ry="3.98392" fill="#4A6C90"/>
<path d="M53.1582 54.5131V35.2341C53.1582 31.3469 50.0071 28.1958 46.1199 28.1958H8.09365C4.20653 28.1958 1.0554 31.3469 1.0554 35.2341V50.7838C1.0554 53.506 1.98362 56.1469 3.68685 58.2705C5.39008 60.394 6.31831 63.0349 6.31831 65.7571V68.6599L11.6027 63.1695C12.5978 62.1356 13.971 61.5513 15.406 61.5513H21.0545H46.12C50.0071 61.5513 53.1582 58.4002 53.1582 54.5131Z" fill="#00C5BA" stroke="#4A6C90"/>
<path d="M9.07227 49.1624V25.1183C9.07227 21.2312 12.2234 18.0801 16.1105 18.0801H62.1526C66.0398 18.0801 69.1909 21.2312 69.1909 25.1183V43.0254C69.1909 46.6978 67.9299 50.2588 65.6188 53.1128C64.001 55.1106 63.1183 57.6033 63.1183 60.174V64.3248L57.297 58.334C55.9717 56.9702 54.151 56.2007 52.2493 56.2007H46.1151H16.1105C12.2234 56.2007 9.07227 53.0496 9.07227 49.1624Z" fill="#D3DDE8" stroke="#4A6C90"/>
<ellipse cx="25.7715" cy="37.5891" rx="2.00395" ry="2.16772" fill="#4A6C90"/>
<ellipse cx="39.1329" cy="37.5891" rx="2.00395" ry="2.16772" fill="#4A6C90"/>
<ellipse cx="52.4883" cy="37.5891" rx="2.00395" ry="2.16772" fill="#4A6C90"/>
</svg>
