<svg width="103" height="176" viewBox="0 0 103 176" fill="none" xmlns="http://www.w3.org/2000/svg">
<path d="M8.39132 65.0673L10.7152 58.0958L17.6868 51.1242L24.6583 45.8955L36.4993 56.5L42.4993 58.5L42.9993 57.5L41.9993 53L40.9253 49.3813L47.4993 60.5002L48.9993 64.5002L51.4993 72L54.9993 84.2392L59 96L62.8541 95.3198C65.6614 94.8244 68.4884 96.0826 69.9993 98.5L71.1355 102.83L71.7165 105.735V109.802L62.4144 113.367L62.9954 121.5L64.4954 130.5L65.9068 151.05L65.3259 149.307L63.002 224.252L58.9352 260.852L59.5162 275.377L54.8685 276.539L54.2875 281.767L58.3543 286.996L66.4878 292.806L75.2023 296.291L83.9167 298.615L86.2406 300.939L87.9835 303.844L85.6596 307.911H38.0205L35.1157 303.844V298.615L38.0205 292.225V275.958L34.5347 275.377L33.9538 274.215L26.4012 275.377L24.6583 284.672L25.8203 292.806L26.9822 298.615L27.5632 301.52L25.8203 307.911H1.41974L0.257812 306.168V301.52L2.58167 298.615L6.64842 292.225L10.1342 286.996V274.796L4.90553 273.634L8.97228 242.843L11.2961 212.632L14.9954 182L16.9954 149L13.62 148.726L16.5248 138.269L19.9954 131.5V119V110.5L18.8487 105.735L16 99L13.6207 92.5L10.7152 84.2392L9.55325 79.5915L7.81035 70.296L8.39132 65.0673Z" fill="#EFFFFE"/>
<path d="M75 93L68.5 96L69.5 98L70.5 100.5L71.5 103L77.5 101L81 100L86.5 98L90.5 95.5L93.5 92.5L86 93L84 92.5L83 91V88V86L82.5 85L81 85.5L79 88L78.5 90.5L77.5 92L75 93Z" fill="#EFFFFE"/>
<path d="M46.1562 11.6191L48.4801 19.1717L49.0665 21.8104C49.4424 23.5019 50.2928 25.0512 51.5181 26.2764L52.2271 26.9855C53.0175 27.7759 52.9454 29.0778 52.0725 29.7761V29.7761C51.241 30.4413 50.5961 31.3107 50.2006 32.2994L50.1325 32.4696C49.8085 33.2796 49.642 34.144 49.642 35.0165V36.9901C49.642 37.5035 49.5858 38.0154 49.4744 38.5166L48.999 40.656C48.6836 42.0755 47.5602 43.1752 46.1343 43.4604V43.4604C45.7638 43.5345 45.3841 43.551 45.0086 43.5092L43.6365 43.3568C41.4853 43.1178 39.4422 42.2879 37.7337 40.959V40.959C36.0233 39.6287 34.7151 37.8504 33.9543 35.8216L33.375 34.2768" stroke="#94DFDA" stroke-width="0.930495"/>
<path d="M25.2401 33.6948V34.7898C25.2401 37.9265 24.9578 41.057 24.3967 44.1431L24.0781 45.8951" stroke="#94DFDA" stroke-width="0.930495"/>
<path d="M40.9258 42.9917V49.9633L42.6687 52.8681" stroke="#94DFDA" stroke-width="0.930495"/>
<path d="M19.4961 108C19.4961 108.465 20.0106 121.423 20.0106 126.651V126.651C20.0106 134.058 17.8626 141.305 13.8267 147.516L13.0391 148.728L35.6967 151.052L42.1725 146.889C48.6605 142.718 54.4601 137.563 59.3633 131.609L60.0972 130.718L63.002 141.756L66.4878 152.214L64.4961 129.5L61.9961 113.5" stroke="#94DFDA" stroke-width="0.930495"/>
<path d="M16.9101 149.743L14.1573 188.676L12.5056 217.73L10.8539 244.459L7 274.676L22.4157 277L36.1798 274.676L38.9326 240.392L46.6404 203.203L50.4944 174.149L56 148" stroke="#94DFDA" stroke-width="0.930495"/>
<path d="M65.3291 149.309L63.5862 216.701L59.5195 260.854V275.959L50.224 277.121L33.957 275.959V274.216" stroke="#94DFDA" stroke-width="0.930495"/>
<path d="M33.7438 24.6091L45.6258 12.7271C45.9766 12.3763 46.302 12.0011 46.5997 11.6042L46.753 11.3998C47.4532 10.4662 47.5658 9.21703 47.0439 8.1732C46.0917 6.26878 44.5112 4.75148 42.5695 3.87773L39.3046 2.40849C35.8187 0.839845 31.9388 0.366104 28.1779 1.04991C23.662 1.87098 19.5997 4.3088 16.7507 7.90752L15.1584 9.91896C11.9983 13.9106 10.9236 19.1666 12.2631 24.0782C13.1446 27.3101 15.0169 30.1843 17.6168 32.2967L18.8473 33.2965L19.3807 33.73C21.3603 35.3384 24.2532 35.1128 25.9595 33.2169L27.0617 31.9923C27.7138 31.2677 27.856 30.2177 27.42 29.3457C27.1388 28.7833 27.0925 28.1321 27.2914 27.5355L27.4914 26.9354C27.8556 25.8428 29.0157 25.2309 30.1231 25.5473C31.4108 25.9152 32.7968 25.5561 33.7438 24.6091Z" fill="#EFFFFE"/>
<path d="M15.5267 30.5986L14.586 31.3301C13.6582 32.0515 13.2862 33.2797 13.6579 34.3947L13.6935 34.5015C14.0036 35.432 14.8129 36.1074 15.7839 36.2461V36.2461C17.1676 36.4438 18.4585 35.5077 18.7006 34.131L18.8473 33.2965M18.8473 33.2965L19.3807 33.73C21.3603 35.3384 24.2532 35.1128 25.9595 33.2169L27.0617 31.9923C27.7138 31.2677 27.856 30.2177 27.42 29.3457V29.3457C27.1388 28.7833 27.0925 28.1321 27.2914 27.5355L27.4914 26.9354C27.8556 25.8428 29.0157 25.2309 30.1231 25.5473V25.5473C31.4108 25.9152 32.7968 25.5561 33.7438 24.6091L45.6258 12.7271C45.9766 12.3763 46.302 12.0011 46.5997 11.6042L46.753 11.3998C47.4532 10.4662 47.5658 9.21703 47.0439 8.1732V8.1732C46.0917 6.26878 44.5112 4.75148 42.5695 3.87773L39.3046 2.40849C35.8187 0.839845 31.9388 0.366104 28.1779 1.04991V1.04991C23.662 1.87098 19.5997 4.3088 16.7507 7.90752L15.1584 9.91896C11.9983 13.9106 10.9236 19.1666 12.2631 24.0782V24.0782C13.1446 27.3101 15.0169 30.1843 17.6168 32.2967L18.8473 33.2965Z" stroke="#94DFDA" stroke-width="0.930495"/>
<path d="M13.6221 33.6948L11.7367 35.5802C9.57933 37.7376 8.26484 40.5956 8.03084 43.6377L7.8125 46.476L8.70328 45.8822C10.3245 44.8014 11.2983 42.9818 11.2983 41.0334V41.0334C11.2983 39.6701 11.7762 38.35 12.649 37.3027L14.2031 35.4377" stroke="#94DFDA" stroke-width="0.930495"/>
<path d="M15.9435 36.6001V40.7242C15.9435 41.8388 15.7431 42.9443 15.3517 43.988L14.7925 45.4792C14.4011 46.5229 14.2006 47.6284 14.2006 48.743V49.9623L13.58 49.3416C12.463 48.2246 11.649 46.8413 11.2151 45.3224L10.7148 43.5717" stroke="#94DFDA" stroke-width="0.930495"/>
<path d="M24.0781 45.8965L35.2871 55.1561C36.7024 56.3253 38.3746 57.1424 40.1667 57.5407L42.669 58.0967V58.0967C42.669 55.7917 42.2544 53.5054 41.4451 51.3471L40.9261 49.9632L48.5 62.5L52.5 74.5L59 96" stroke="#94DFDA" stroke-width="0.930495"/>
<path d="M68.8125 95.8598L74.0325 93.2498C74.4234 93.0544 74.8413 92.9185 75.2724 92.8466V92.8466C76.9942 92.5597 78.3818 91.2787 78.8051 89.5853L79.2699 87.7263L80.8239 85.6543C81.5367 84.7038 83.043 85.0897 83.211 86.2659V86.2659C83.2941 86.848 83.2777 87.4399 83.1624 88.0165L82.8644 89.5066C82.7926 89.8654 82.7926 90.2349 82.8644 90.5938V90.5938C83.1352 91.9481 84.3618 92.8964 85.7407 92.8176L93.5 92.374L92.6089 93.3081C89.2243 96.856 84.8106 99.2508 79.9913 100.154V100.154C78.7378 100.389 77.5057 100.727 76.3072 101.162L71.7173 102.831" stroke="#94DFDA" stroke-width="0.930495"/>
<path d="M24.0802 45.8965L14.8795 53.7171C13.2777 55.0786 11.9074 56.6909 10.8218 58.4911V58.4911C8.66479 62.0683 7.71728 66.2452 8.11964 70.403L8.57412 75.0993C8.85683 78.0206 9.51994 80.8924 10.5466 83.642L20.9716 111.561C22.2256 114.919 24.6683 117.701 27.8367 119.378V119.378C31.0288 121.068 34.7331 121.518 38.2372 120.642L53.7094 116.774L71.7193 109.803L71.7747 108.973C72.1143 103.878 70.6555 98.8265 67.6526 94.6975V94.6975L39.7663 99.9262L36.2511 93.7747C33.9603 89.7657 32.2956 85.4302 31.3148 80.9183L29.8899 74.3638" stroke="#94DFDA" stroke-width="0.930495"/>
<path d="M70.1316 68.806C70.2243 68.3376 70.6352 68 71.1126 68H95.0392C95.6645 68 96.1364 68.5675 96.0224 69.1823L95.6516 71.1823C95.5637 71.6562 95.1503 72 94.6684 72H70.7171C70.087 72 69.6139 71.4242 69.7361 70.806L70.1316 68.806Z" fill="#C1F0ED"/>
<path d="M74.5 68.9999C74.7761 68.9999 75 68.776 75 68.4999C75 68.2237 74.7761 67.9999 74.5 67.9999V68.9999ZM74.5 67.9999C74.1634 67.9999 73.6472 67.8947 73.2297 67.5941C72.8376 67.3117 72.5 66.8368 72.5 65.9999H71.5C71.5 67.1628 71.9958 67.9379 72.6453 68.4056C73.2694 68.8549 74.0033 68.9999 74.5 68.9999V67.9999ZM72.5 65.9999C72.5 64.8409 73.4565 64.125 74.5 64.125C75.01 64.125 75.502 64.3029 75.8652 64.6661C76.2241 65.025 76.5 65.6081 76.5 66.5H77.5C77.5 65.392 77.1509 64.5375 76.5723 63.959C75.998 63.3847 75.24 63.125 74.5 63.125C73.0435 63.125 71.5 64.159 71.5 65.9999H72.5Z" fill="#94DFDA"/>
<path d="M82.5 68.9999C82.7761 68.9999 83 68.776 83 68.4999C83 68.2237 82.7761 67.9999 82.5 67.9999V68.9999ZM82.5 67.9999C82.1634 67.9999 81.6472 67.8947 81.2297 67.5941C80.8376 67.3117 80.5 66.8368 80.5 65.9999H79.5C79.5 67.1628 79.9958 67.9379 80.6453 68.4056C81.2694 68.8549 82.0033 68.9999 82.5 68.9999V67.9999ZM80.5 65.9999C80.5 64.8409 81.4565 64.125 82.5 64.125C83.01 64.125 83.502 64.3029 83.8652 64.6661C84.2241 65.025 84.5 65.6081 84.5 66.5H85.5C85.5 65.392 85.1509 64.5375 84.5723 63.959C83.998 63.3847 83.24 63.125 82.5 63.125C81.0435 63.125 79.5 64.159 79.5 65.9999H80.5Z" fill="#94DFDA"/>
<path d="M91.5 68.9999C91.7761 68.9999 92 68.776 92 68.4999C92 68.2237 91.7761 67.9999 91.5 67.9999V68.9999ZM91.5 67.9999C91.1634 67.9999 90.6472 67.8947 90.2297 67.5941C89.8376 67.3117 89.5 66.8368 89.5 65.9999H88.5C88.5 67.1628 88.9958 67.9379 89.6453 68.4056C90.2694 68.8549 91.0033 68.9999 91.5 68.9999V67.9999ZM89.5 65.9999C89.5 64.8409 90.4565 64.125 91.5 64.125C92.01 64.125 92.502 64.3029 92.8652 64.6661C93.2241 65.025 93.5 65.6081 93.5 66.5H94.5C94.5 65.392 94.1509 64.5375 93.5723 63.959C92.998 63.3847 92.24 63.125 91.5 63.125C90.0435 63.125 88.5 64.159 88.5 65.9999H89.5Z" fill="#94DFDA"/>
<path d="M76.5 92.5H65.4579C64.1898 92.5 63.2419 91.335 63.4997 90.0934L68.0676 68.0934C68.2603 67.1653 69.078 66.5 70.0259 66.5H96.1688C97.3945 66.5 98.3319 67.5926 98.1455 68.8041L94.6305 91.6521C94.5554 92.1399 94.1357 92.5 93.6421 92.5H92.5" stroke="#94DFDA"/>
<path d="M98 67.5L101.74 84.7996C101.9 85.536 101.632 86.2994 101.047 86.7745L94 92.5" stroke="#94DFDA"/>
<circle cx="70.5" cy="75.5" r="1.5" fill="#C1F0EC"/>
<circle cx="69.5" cy="81.5" r="1.5" fill="#C1F0EC"/>
<circle cx="68.5" cy="87.5" r="1.5" fill="#C1F0EC"/>
<circle cx="77.5" cy="75.5" r="1.5" fill="#C1F0EC"/>
<circle cx="76.5" cy="81.5" r="1.5" fill="#C1F0EC"/>
<circle cx="75.5" cy="87.5" r="1.5" fill="#C1F0EC"/>
<circle cx="84.5" cy="75.5" r="1.5" fill="#C1F0EC"/>
<circle cx="83.5" cy="81.5" r="1.5" fill="#C1F0EC"/>
<circle cx="91.5" cy="75.5" r="1.5" fill="#C1F0EC"/>
<circle cx="90.5" cy="81.5" r="1.5" fill="#C1F0EC"/>
<circle cx="89.5" cy="87.5" r="1.5" fill="#C1F0EC"/>
</svg>
