<svg width="84" height="35" viewBox="0 0 84 35" fill="none" xmlns="http://www.w3.org/2000/svg">
<circle cx="12" cy="22.9473" r="12" fill="#D1F2FB"/>
<path d="M13.3205 22.7829L8.31292 22.8095L7.252 18.2052C7.10007 17.5455 7.80096 17.0134 8.39426 17.3382L17.0891 22.094C17.6327 22.3912 17.6293 23.1738 17.0827 23.4707L8.37231 28.2016C7.7763 28.525 7.0812 27.9942 7.23729 27.3351L8.31116 22.8086" stroke="#4A6C90" stroke-linecap="round" stroke-linejoin="round"/>
<path d="M10.5 9.44727V5.44727C10.5 3.23813 12.2909 1.44727 14.5 1.44727H67.5C69.7091 1.44727 71.5 3.23813 71.5 5.44727V9.44727" stroke="#9FE3DF" stroke-linecap="round"/>
<circle cx="27" cy="22.9473" r="12" fill="#D4F7E2"/>
<path d="M27.0771 24.0617V16.6519" stroke="#4A6C90" stroke-linecap="round" stroke-linejoin="round"/>
<path d="M28.8711 22.2603L27.0766 24.0621L25.2822 22.2603" stroke="#4A6C90" stroke-linecap="round" stroke-linejoin="round"/>
<path d="M29.9283 19.5645H30.5025C31.7548 19.5645 32.7695 20.5792 32.7695 21.8321V24.8377C32.7695 26.0869 31.7572 27.0992 30.508 27.0992H23.6526C22.4003 27.0992 21.3849 26.0838 21.3849 24.8315V21.8254C21.3849 20.5768 22.3978 19.5645 23.6465 19.5645H24.2261" stroke="#4A6C90" stroke-linecap="round" stroke-linejoin="round"/>
<circle cx="42" cy="22.9473" r="12" fill="#D0D2FA"/>
<path d="M39.8477 22.0242H41.3861L42.0015 20.7935L42.9246 23.255L43.54 22.0242H44.463" stroke="#4A6C90" stroke-linecap="round" stroke-linejoin="round"/>
<path d="M43.7353 24.7551H39.8477" stroke="#4A6C90" stroke-linecap="round" stroke-linejoin="round"/>
<path d="M41.3311 26.6013H39.8477" stroke="#4A6C90" stroke-linecap="round" stroke-linejoin="round"/>
<path d="M44.1211 18.332C45.6631 18.332 46.6175 19.368 46.6175 20.95V26.1756C46.6175 27.7497 45.6703 28.7822 44.1415 28.7919C44.1343 28.7919 39.8826 28.7936 39.8826 28.7936C38.3405 28.7936 37.3867 27.7576 37.3867 26.1756V20.95C37.3867 19.3759 38.3333 18.344 39.8621 18.3343" stroke="#4A6C90" stroke-linecap="round" stroke-linejoin="round"/>
<rect x="40.2871" y="17.5396" width="3.43077" height="1.95385" rx="0.5" stroke="#4A6C90"/>
<circle cx="57" cy="22.9473" r="12" fill="#FDD1E6"/>
<path d="M51.4629 22.947H55.1552L56.0783 20.4855L57.0014 24.7932L57.9244 22.947H62.5398M52.271 22.7277C51.7149 20.8951 52.3648 18.8004 54.1877 18.1806C55.1465 17.854 56.2049 18.0465 57.002 18.6795C57.7562 18.064 58.8534 17.8562 59.8112 18.1806C61.6341 18.8004 62.2882 20.8951 61.7325 22.7277C60.867 25.6326 57.002 27.8701 57.002 27.8701C57.002 27.8701 53.1656 25.6665 52.271 22.7277Z" stroke="#4A6C90" stroke-linecap="round" stroke-linejoin="round"/>
<circle cx="72" cy="22.9473" r="12" fill="#FFE8B8"/>
<path d="M69.168 18.4087C69.168 17.8564 69.6157 17.4087 70.168 17.4087H73.3372C73.8895 17.4087 74.3372 17.8564 74.3372 18.4087V19.9933H69.168V18.4087Z" stroke="#4A6C90"/>
<path d="M67.5059 21.9932C67.5059 20.8886 68.4013 19.9932 69.5059 19.9932H73.9982C75.1027 19.9932 75.9982 20.8886 75.9982 21.9932V26.9855C75.9982 27.8139 75.3266 28.4855 74.4982 28.4855H69.0059C68.1774 28.4855 67.5059 27.8139 67.5059 26.9855V21.9932Z" stroke="#4A6C90"/>
<path d="M70.0898 23.3931C70.0898 22.8408 70.5376 22.3931 71.0898 22.3931H75.9975V26.0854H71.0898C70.5376 26.0854 70.0898 25.6377 70.0898 25.0854V23.3931Z" stroke="#4A6C90" stroke-linejoin="round"/>
</svg>
